<svg xmlns="http://www.w3.org/2000/svg" width="14.207" height="14.754" viewBox="0 0 14.207 14.754">
  <g id="calendario" transform="translate(-5.988)">
    <g id="Raggruppa_680" data-name="Raggruppa 680" transform="translate(5.988 0)">
      <path id="Tracciato_10549" data-name="Tracciato 10549" d="M7.944,14.754H18.239A1.958,1.958,0,0,0,20.2,12.8V3.049a1.958,1.958,0,0,0-1.956-1.956h-.776V.546a.546.546,0,0,0-1.093,0v.546H9.813V.546a.546.546,0,0,0-1.093,0v.546H7.944A1.958,1.958,0,0,0,5.988,3.049V12.8a1.958,1.958,0,0,0,1.956,1.956Zm-.863-11.7a.865.865,0,0,1,.863-.863H8.72v.546a.546.546,0,0,0,1.093,0V2.186H16.37v.546a.546.546,0,0,0,1.093,0V2.186h.776a.865.865,0,0,1,.863.863v1.6H7.081Zm0,2.688H19.1V12.8a.865.865,0,0,1-.863.863H7.944a.865.865,0,0,1-.863-.863Z" transform="translate(-5.988 0)" fill="#00577c"/>
    </g>
  </g>
</svg>
