<svg xmlns="http://www.w3.org/2000/svg" width="11.77" height="14.548" viewBox="0 0 11.77 14.548">
  <g id="dove" transform="translate(-48.886)">
    <g id="Raggruppa_683" data-name="Raggruppa 683" transform="translate(48.886)">
      <g id="Raggruppa_682" data-name="Raggruppa 682" transform="translate(0)">
        <path id="Tracciato_10550" data-name="Tracciato 10550" d="M59.6,2.529a5.874,5.874,0,0,0-9.658,0,5.875,5.875,0,0,0-.684,5.413,4.627,4.627,0,0,0,.853,1.408l4.273,5.019a.508.508,0,0,0,.775,0L59.43,9.351a4.631,4.631,0,0,0,.853-1.406A5.876,5.876,0,0,0,59.6,2.529Zm-.27,5.06a3.629,3.629,0,0,1-.671,1.1l0,0-3.886,4.564L50.883,8.688a3.631,3.631,0,0,1-.672-1.1,4.859,4.859,0,0,1,.568-4.478,4.857,4.857,0,0,1,7.984,0A4.86,4.86,0,0,1,59.33,7.589Z" transform="translate(-48.886 0)" fill="#00577c"/>
      </g>
    </g>
    <g id="Raggruppa_685" data-name="Raggruppa 685" transform="translate(51.922 3.018)">
      <g id="Raggruppa_684" data-name="Raggruppa 684" transform="translate(0)">
        <path id="Tracciato_10551" data-name="Tracciato 10551" d="M158.6,106.219a2.849,2.849,0,1,0,2.849,2.849A2.852,2.852,0,0,0,158.6,106.219Zm0,4.68a1.831,1.831,0,1,1,1.831-1.831A1.833,1.833,0,0,1,158.6,110.9Z" transform="translate(-155.754 -106.219)" fill="#00577c"/>
      </g>
    </g>
  </g>
</svg>
