<svg xmlns="http://www.w3.org/2000/svg" width="44.288" height="44.288" viewBox="0 0 44.288 44.288">
  <g id="menuOpen" transform="translate(-165 -740.911)">
    <path id="menuOpen-2" data-name="menuOpen" d="M23.544,1.4A22.144,22.144,0,1,0,45.688,23.544,22.144,22.144,0,0,0,23.544,1.4Zm0,41.782A19.637,19.637,0,1,1,43.182,23.544,19.637,19.637,0,0,1,23.544,43.182Zm8.461-21.713a1.256,1.256,0,0,1-1.8,1.755l-6.664-6.769-6.685,6.81a1.253,1.253,0,1,1-1.671-1.776l7.667-7.667a1.253,1.253,0,0,1,.689-.355,1.233,1.233,0,0,1,.877.376Z" transform="translate(163.6 739.511)" fill="#00577c"/>
    <path id="up-arrow" d="M32.005,21.469a1.256,1.256,0,0,1-1.8,1.755l-6.664-6.769-6.685,6.81a1.253,1.253,0,1,1-1.671-1.776l7.667-7.667a1.253,1.253,0,0,1,.689-.355,1.233,1.233,0,0,1,.877.376Z" transform="translate(163.684 747.511)" fill="#00577c"/>
  </g>
</svg>
