<svg xmlns="http://www.w3.org/2000/svg" width="133" height="133" viewBox="0 0 133 133">
  <g id="backButtonImageWhite" transform="translate(-0.124 0.09)">
    <g id="Rectangle_1920" data-name="Rectangle 1920" transform="translate(0.124 -0.09)" fill="#fff" stroke="#335083" stroke-width="1">
      <rect width="133" height="133" rx="6" stroke="none"/>
      <rect x="0.5" y="0.5" width="132" height="132" rx="5.5" fill="none"/>
    </g>
    <path id="up-arrow" d="M68.351,31.346a4.92,4.92,0,0,1-.082,6.957,5.3,5.3,0,0,1-2.7,1.345,4.7,4.7,0,0,1-4.259-1.426L35.2,11.7,9.014,38.385a4.911,4.911,0,1,1-6.548-6.957L32.5,1.391A4.911,4.911,0,0,1,35.2,0a4.829,4.829,0,0,1,3.437,1.473Z" transform="translate(45.987 101.466) rotate(-90)" fill="#335083"/>
  </g>
</svg>
