<svg xmlns="http://www.w3.org/2000/svg" version="1.1" xmlns:xlink="http://www.w3.org/1999/xlink" width="512" height="512" x="0" y="0" viewBox="0 0 512 512" style="enable-background:new 0 0 512 512" xml:space="preserve"><g><path d="M485.329 256.255 423.901 149.87c-6.208-10.752-16.261-18.446-28.308-21.665-12.031-3.215-24.563-1.564-35.259 4.632-6.788 3.912-12.358 9.355-16.355 15.866-14.982-9.535-34.655-10.638-51.092-1.176a48.909 48.909 0 0 0-19.879 21.636c-14.077-6.577-31.039-6.423-45.472 1.91-5.808 3.344-10.773 7.752-14.694 12.964l-49.765-86.222c-6.557-11.336-17.172-19.455-29.89-22.861-12.728-3.409-25.982-1.673-37.294 4.87-11.358 6.538-19.491 17.149-22.901 29.879-3.406 12.712-1.68 25.96 4.865 37.308l108.308 187.603-13.741-7.932c-16.292-9.417-35.045-11.756-52.806-6.585-17.338 5.047-32.019 16.726-41.334 32.875-9.741 16.861-3.949 38.502 12.917 48.246l141.333 81.58c22.176 12.811 45.975 19.215 69.781 19.213 23.801-.001 47.609-6.406 69.78-19.213l62.131-35.884c66.649-38.458 89.575-123.985 51.104-190.659zm-15.13 98.13c-7.59 28.328-25.691 51.96-50.972 66.548l-62.138 35.888c-34.811 20.108-74.74 20.109-109.555-.003l-141.333-81.579c-2.494-1.441-3.383-4.765-1.938-7.268 5.436-9.423 13.866-16.195 23.738-19.069a36.796 36.796 0 0 1 10.295-1.473c6.571 0 13.125 1.767 19.12 5.232l62.221 35.916a15.001 15.001 0 0 0 20.489-20.491L103.84 132.018c-2.541-4.406-3.205-9.574-1.871-14.552 1.333-4.975 4.49-9.109 8.917-11.658 4.396-2.543 9.56-3.209 14.54-1.875 4.984 1.335 9.133 4.496 11.674 8.89l105.621 182.979c2.778 4.813 7.82 7.504 13.005 7.504 2.544 0 5.123-.648 7.485-2.011 7.175-4.141 9.633-13.315 5.492-20.49l-33.286-57.665c-2.481-4.378-3.126-9.494-1.805-14.426 1.333-4.975 4.49-9.109 8.906-11.652 9.164-5.291 20.932-2.142 26.209 6.983l.012.021.001.002.034.06 33.16 57.485c2.777 4.815 7.821 7.507 13.007 7.507 2.542 0 5.12-.647 7.481-2.009 7.176-4.139 9.638-13.312 5.498-20.488l-27.257-47.252c-4.989-9.124-1.815-20.646 7.205-25.855 9.182-5.285 20.954-2.131 26.239 7.024l27.046 46.862c2.778 4.812 7.82 7.503 13.005 7.503 2.544 0 5.123-.648 7.485-2.012 7.174-4.142 9.633-13.316 5.491-20.49l-17.915-31.033c-2.169-3.787-2.734-8.22-1.589-12.49 1.15-4.29 3.878-7.86 7.71-10.068 3.783-2.191 8.224-2.768 12.507-1.624 4.298 1.148 7.875 3.876 10.072 7.682l61.426 106.382c14.588 25.282 18.442 54.806 10.852 83.133zM67.789 205.894a14.965 14.965 0 0 1-11.335 5.169 14.941 14.941 0 0 1-9.825-3.672 111.334 111.334 0 0 1-23.58-28.653C-7.955 125.021 10.518 56.063 64.239 25.039 117.978-5.978 186.937 12.495 217.96 66.216a112.147 112.147 0 0 1 13.015 34.734c1.586 8.131-3.72 16.008-11.851 17.594-8.128 1.585-16.008-3.719-17.594-11.851a82.235 82.235 0 0 0-9.545-25.469C169.228 41.818 118.652 28.272 79.238 51.02c-39.396 22.751-52.943 73.327-30.196 112.74a81.462 81.462 0 0 0 17.25 20.973c6.257 5.43 6.927 14.904 1.497 21.16z" fill="#ffffff" opacity="1" data-original="#000000"></path></g></svg>